# xmcd
#
# Track frame offsets:
#	150
#	17717
#	38222
#	70032
#	89040
#
# Disc length: 1466 seconds
#
# Revision: 1
# Processed by: cddbd v1.5.2PL0 Copyright (c) Steve Scherf et al.
# Submitted via: audiograbber 1.83.01
#
DISCID=3b05b805
DTITLE=LSG - My Body [CDM)
DYEAR=1997
DGENRE=R&B
TTITLE0=My Body [Radio Edit]
TTITLE1=My Body [Remix] ft Missy Elliott
TTITLE2=My Body [LSG Remix]
TTITLE3=My Body [Instrumental]
TTITLE4=Check Is in the Mail [Non LP Track]
EXTD=
EXTT0=
EXTT1=
EXTT2=
EXTT3=
EXTT4=
PLAYORDER=
